<svg xmlns="http://www.w3.org/2000/svg" viewBox="0 0 200 200" width="200" height="200">
  <defs>
    <linearGradient id="bg" x1="0%" y1="0%" x2="100%" y2="100%">
      <stop offset="0%" stop-color="#0d1326"/>
      <stop offset="100%" stop-color="#0a0e1a"/>
    </linearGradient>
    <linearGradient id="accent" x1="0%" y1="0%" x2="100%" y2="100%">
      <stop offset="0%" stop-color="#00f0ff" stop-opacity="0.3"/>
      <stop offset="100%" stop-color="#7b2dff" stop-opacity="0.3"/>
    </linearGradient>
  </defs>
  <!-- Background circle -->
  <circle cx="100" cy="100" r="100" fill="url(#bg)"/>
  <!-- Head -->
  <circle cx="100" cy="75" r="32" fill="url(#accent)" stroke="#00f0ff" stroke-width="0.5" stroke-opacity="0.3"/>
  <!-- Body -->
  <path d="M45 170 Q45 125 100 120 Q155 125 155 170" fill="url(#accent)" stroke="#00f0ff" stroke-width="0.5" stroke-opacity="0.3"/>
  <!-- Circuit traces -->
  <line x1="70" y1="60" x2="50" y2="40" stroke="#00f0ff" stroke-width="0.5" stroke-opacity="0.15"/>
  <line x1="130" y1="60" x2="150" y2="40" stroke="#00f0ff" stroke-width="0.5" stroke-opacity="0.15"/>
  <line x1="100" y1="120" x2="100" y2="145" stroke="#00f0ff" stroke-width="0.5" stroke-opacity="0.15"/>
  <line x1="70" y1="135" x2="55" y2="155" stroke="#00f0ff" stroke-width="0.5" stroke-opacity="0.15"/>
  <line x1="130" y1="135" x2="145" y2="155" stroke="#00f0ff" stroke-width="0.5" stroke-opacity="0.15"/>
  <!-- Circuit nodes -->
  <circle cx="50" cy="40" r="2" fill="#00f0ff" fill-opacity="0.3"/>
  <circle cx="150" cy="40" r="2" fill="#00f0ff" fill-opacity="0.3"/>
  <circle cx="100" cy="145" r="2" fill="#00f0ff" fill-opacity="0.3"/>
  <circle cx="55" cy="155" r="2" fill="#00f0ff" fill-opacity="0.3"/>
  <circle cx="145" cy="155" r="2" fill="#00f0ff" fill-opacity="0.3"/>
</svg>
